<svg xmlns="http://www.w3.org/2000/svg" xmlns:xlink="http://www.w3.org/1999/xlink" id="Layer_1" width="268" height="255" x="0" style="enable-background:new 0 0 268 255" y="0" version="1.1" viewBox="0 0 268 255" xml:space="preserve"><style type="text/css">.st0{fill:none;stroke:#fff;stroke-width:15;stroke-miterlimit:10}.st1{fill:#ababab}.st2{display:none}.st3{display:inline}.st4{fill:none;stroke:#000;stroke-width:15;stroke-miterlimit:10}</style><g id="atom"><g><g><circle cx="134.2" cy="127.6" r="115.1" class="st0"/><circle cx="134.2" cy="127.6" r="66.3" class="st1"/></g><path d="M253,56.3c0,15.6-12.6,28.2-28.2,28.2s-28.2-12.6-28.2-28.2s12.6-28.2,28.2-28.2 C240.3,28.1,253,40.7,253,56.3z" class="st1"/></g></g><g id="Layer_3" class="st2"><g class="st3"><g><circle cx="68.6" cy="183.9" r="58.2" class="st4"/><circle cx="68.6" cy="183.9" r="33.5" class="st1"/></g><g><circle cx="134.1" cy="70.9" r="58.2" class="st4"/><circle cx="134.1" cy="70.9" r="33.5" class="st1"/></g><g><circle cx="199.9" cy="183.9" r="58.2" class="st4"/><circle cx="199.9" cy="183.9" r="33.5" class="st1"/></g><circle cx="97.6" cy="138.1" r="14.3" class="st1"/><circle cx="126" cy="184.9" r="14.3" class="st1"/><circle cx="141.6" cy="184.9" r="14.3" class="st1"/><circle cx="172.6" cy="137.5" r="14.3" class="st1"/><circle cx="105.7" cy="119.8" r="14.3" class="st1"/><circle cx="166.4" cy="120.8" r="14.3" class="st1"/></g></g></svg>