<svg xmlns="http://www.w3.org/2000/svg" xmlns:xlink="http://www.w3.org/1999/xlink" width="268" height="255" x="0" y="0" version="1.1" viewBox="0 0 268 255" xml:space="preserve" style="enable-background:new 0 0 268 255"><style type="text/css">.st0{fill:#ababab}.st1,.st2{fill:none;stroke:#000;stroke-width:11;stroke-miterlimit:10}.st2{stroke-width:15}.st3{display:inline}.st4{display:none}</style><g id="atom" class="st4"><g class="st3"><g><circle cx="134.2" cy="127.6" r="115.1" class="st2"/><circle cx="134.2" cy="127.6" r="66.3" class="st0"/></g><path d="M253,56.3c0,15.6-12.6,28.2-28.2,28.2c-15.6,0-28.2-12.6-28.2-28.2c0-15.6,12.6-28.2,28.2-28.2 C240.3,28.1,253,40.7,253,56.3z" class="st0"/></g></g><g id="Layer_3" class="st4"><g class="st3"><g><circle cx="68.6" cy="183.9" r="58.2" class="st2"/><circle cx="68.6" cy="183.9" r="33.5" class="st0"/></g><g><circle cx="134.1" cy="70.9" r="58.2" class="st2"/><circle cx="134.1" cy="70.9" r="33.5" class="st0"/></g><g><circle cx="199.9" cy="183.9" r="58.2" class="st2"/><circle cx="199.9" cy="183.9" r="33.5" class="st0"/></g><circle cx="97.6" cy="138.1" r="14.3" class="st0"/><circle cx="126" cy="184.9" r="14.3" class="st0"/><circle cx="141.6" cy="184.9" r="14.3" class="st0"/><circle cx="172.6" cy="137.5" r="14.3" class="st0"/><circle cx="105.7" cy="119.8" r="14.3" class="st0"/><circle cx="166.4" cy="120.8" r="14.3" class="st0"/></g></g><g id="Layer_5"><g><circle cx="40.6" cy="67.2" r="29.3" class="st1"/><circle cx="40.6" cy="67.2" r="16.9" class="st0"/><circle cx="103.5" cy="67.2" r="29.3" class="st1"/><circle cx="103.5" cy="67.2" r="16.9" class="st0"/><circle cx="166.5" cy="67.2" r="29.3" class="st1"/><circle cx="166.5" cy="67.2" r="16.9" class="st0"/><circle cx="230.2" cy="67.2" r="29.3" class="st1"/><circle cx="230.2" cy="67.2" r="16.9" class="st0"/><circle cx="40.6" cy="130.2" r="29.3" class="st1"/><circle cx="40.6" cy="130.2" r="16.9" class="st0"/><circle cx="103.5" cy="130.2" r="29.3" class="st1"/><circle cx="103.5" cy="130.2" r="16.9" class="st0"/><circle cx="166.5" cy="130.2" r="29.3" class="st1"/><circle cx="166.5" cy="130.2" r="16.9" class="st0"/><circle cx="230.2" cy="130.2" r="29.3" class="st1"/><circle cx="230.2" cy="130.2" r="16.9" class="st0"/><circle cx="40.6" cy="193.1" r="29.3" class="st1"/><circle cx="40.6" cy="193.1" r="16.9" class="st0"/><circle cx="103.5" cy="193.1" r="29.3" class="st1"/><circle cx="103.5" cy="193.1" r="16.9" class="st0"/><circle cx="166.5" cy="193.1" r="29.3" class="st1"/><circle cx="166.5" cy="193.1" r="16.9" class="st0"/><circle cx="230.2" cy="193.1" r="29.3" class="st1"/><circle cx="230.2" cy="193.1" r="16.9" class="st0"/><circle cx="71.7" cy="67.2" r="8.1" class="st0"/><circle cx="40.6" cy="98.8" r="8.1" class="st0"/><circle cx="105" cy="98.8" r="8.1" class="st0"/><circle cx="167.2" cy="98.8" r="8.1" class="st0"/><circle cx="230.2" cy="98.8" r="8.1" class="st0"/><circle cx="40.6" cy="161.7" r="8.1" class="st0"/><circle cx="105" cy="161.7" r="8.1" class="st0"/><circle cx="167.2" cy="161.7" r="8.1" class="st0"/><circle cx="230.2" cy="161.7" r="8.1" class="st0"/><circle cx="134.6" cy="67.2" r="8.1" class="st0"/><circle cx="198.3" cy="67.2" r="8.1" class="st0"/><circle cx="71.7" cy="128.7" r="8.1" class="st0"/><circle cx="134.6" cy="128.7" r="8.1" class="st0"/><circle cx="198.3" cy="128.7" r="8.1" class="st0"/><circle cx="71.7" cy="191.6" r="8.1" class="st0"/><circle cx="134.6" cy="191.6" r="8.1" class="st0"/><circle cx="198.3" cy="191.6" r="8.1" class="st0"/></g></g></svg>