<svg xmlns="http://www.w3.org/2000/svg" xmlns:xlink="http://www.w3.org/1999/xlink" id="Layer_1" width="268" height="255" x="0" y="0" enable-background="new 0 0 268 255" version="1.1" viewBox="0 0 268 255" xml:space="preserve"><g id="atom" display="none"><g display="inline"><g><circle cx="134.2" cy="127.6" r="115.1" fill="none" stroke="#000" stroke-miterlimit="10" stroke-width="15"/><circle cx="134.2" cy="127.6" r="66.3" fill="#ABABAB"/></g><path fill="#ABABAB" d="M253,56.3c0,15.6-12.6,28.2-28.2,28.2c-15.6,0-28.2-12.6-28.2-28.2c0-15.6,12.601-28.2,28.2-28.2 C240.3,28.1,253,40.7,253,56.3z"/></g></g><g id="Layer_3" display="none"><g display="inline"><g><circle cx="68.6" cy="183.9" r="58.2" fill="none" stroke="#000" stroke-miterlimit="10" stroke-width="15"/><circle cx="68.6" cy="183.9" r="33.5" fill="#ABABAB"/></g><g><circle cx="134.1" cy="70.9" r="58.2" fill="none" stroke="#000" stroke-miterlimit="10" stroke-width="15"/><circle cx="134.1" cy="70.9" r="33.5" fill="#ABABAB"/></g><g><circle cx="199.9" cy="183.9" r="58.2" fill="none" stroke="#000" stroke-miterlimit="10" stroke-width="15"/><circle cx="199.9" cy="183.9" r="33.5" fill="#ABABAB"/></g><circle cx="97.6" cy="138.1" r="14.3" fill="#ABABAB"/><circle cx="126" cy="184.9" r="14.3" fill="#ABABAB"/><circle cx="141.6" cy="184.9" r="14.3" fill="#ABABAB"/><circle cx="172.6" cy="137.5" r="14.3" fill="#ABABAB"/><circle cx="105.7" cy="119.8" r="14.3" fill="#ABABAB"/><circle cx="166.4" cy="120.8" r="14.3" fill="#ABABAB"/></g></g><g id="organism" display="none"><g display="inline"><circle cx="40.6" cy="67.2" r="29.3" fill="none" stroke="#000" stroke-miterlimit="10" stroke-width="11"/><circle cx="40.6" cy="67.2" r="16.9" fill="#ABABAB"/><circle cx="103.5" cy="67.2" r="29.3" fill="none" stroke="#000" stroke-miterlimit="10" stroke-width="11"/><circle cx="103.5" cy="67.2" r="16.9" fill="#ABABAB"/><circle cx="166.5" cy="67.2" r="29.3" fill="none" stroke="#000" stroke-miterlimit="10" stroke-width="11"/><circle cx="166.5" cy="67.2" r="16.9" fill="#ABABAB"/><circle cx="230.2" cy="67.2" r="29.3" fill="none" stroke="#000" stroke-miterlimit="10" stroke-width="11"/><circle cx="230.2" cy="67.2" r="16.9" fill="#ABABAB"/><circle cx="40.6" cy="130.2" r="29.3" fill="none" stroke="#000" stroke-miterlimit="10" stroke-width="11"/><circle cx="40.6" cy="130.2" r="16.9" fill="#ABABAB"/><circle cx="103.5" cy="130.2" r="29.3" fill="none" stroke="#000" stroke-miterlimit="10" stroke-width="11"/><circle cx="103.5" cy="130.2" r="16.9" fill="#ABABAB"/><circle cx="166.5" cy="130.2" r="29.3" fill="none" stroke="#000" stroke-miterlimit="10" stroke-width="11"/><circle cx="166.5" cy="130.2" r="16.9" fill="#ABABAB"/><circle cx="230.2" cy="130.2" r="29.3" fill="none" stroke="#000" stroke-miterlimit="10" stroke-width="11"/><circle cx="230.2" cy="130.2" r="16.9" fill="#ABABAB"/><circle cx="40.6" cy="193.1" r="29.3" fill="none" stroke="#000" stroke-miterlimit="10" stroke-width="11"/><circle cx="40.6" cy="193.1" r="16.9" fill="#ABABAB"/><circle cx="103.5" cy="193.1" r="29.3" fill="none" stroke="#000" stroke-miterlimit="10" stroke-width="11"/><circle cx="103.5" cy="193.1" r="16.9" fill="#ABABAB"/><circle cx="166.5" cy="193.1" r="29.3" fill="none" stroke="#000" stroke-miterlimit="10" stroke-width="11"/><circle cx="166.5" cy="193.1" r="16.9" fill="#ABABAB"/><circle cx="230.2" cy="193.1" r="29.3" fill="none" stroke="#000" stroke-miterlimit="10" stroke-width="11"/><circle cx="230.2" cy="193.1" r="16.9" fill="#ABABAB"/><circle cx="71.7" cy="67.2" r="8.1" fill="#ABABAB"/><circle cx="40.6" cy="98.8" r="8.1" fill="#ABABAB"/><circle cx="105" cy="98.8" r="8.1" fill="#ABABAB"/><circle cx="167.2" cy="98.8" r="8.1" fill="#ABABAB"/><circle cx="230.2" cy="98.8" r="8.1" fill="#ABABAB"/><circle cx="40.6" cy="161.7" r="8.1" fill="#ABABAB"/><circle cx="105" cy="161.7" r="8.1" fill="#ABABAB"/><circle cx="167.2" cy="161.7" r="8.1" fill="#ABABAB"/><circle cx="230.2" cy="161.7" r="8.1" fill="#ABABAB"/><circle cx="134.6" cy="67.2" r="8.1" fill="#ABABAB"/><circle cx="198.3" cy="67.2" r="8.1" fill="#ABABAB"/><circle cx="71.7" cy="128.7" r="8.1" fill="#ABABAB"/><circle cx="134.6" cy="128.7" r="8.1" fill="#ABABAB"/><circle cx="198.3" cy="128.7" r="8.1" fill="#ABABAB"/><circle cx="71.7" cy="191.6" r="8.1" fill="#ABABAB"/><circle cx="134.6" cy="191.6" r="8.1" fill="#ABABAB"/><circle cx="198.3" cy="191.6" r="8.1" fill="#ABABAB"/></g></g><g id="template"><g><g><g><polyline fill="none" stroke="#000" stroke-miterlimit="10" stroke-width="9" points="225.4 10 225.4 4 219.4 4"/><line x1="207.8" x2="74.8" y1="4" y2="4" fill="none" stroke="#000" stroke-dasharray="11.572 11.572" stroke-miterlimit="10" stroke-width="9"/><polyline fill="none" stroke="#000" stroke-miterlimit="10" stroke-width="9" points="69 4 63 4 63 10"/><line x1="63" x2="63" y1="16.4" y2="25.9" fill="none" stroke="#000" stroke-dasharray="6.377 6.377" stroke-miterlimit="10" stroke-width="9"/><polyline fill="none" stroke="#000" stroke-miterlimit="10" stroke-width="9" points="63 29.1 63 35.1 69 35.1"/><line x1="82.1" x2="180.4" y1="35.1" y2="35.1" fill="none" stroke="#000" stroke-dasharray="13.105 13.105" stroke-miterlimit="10" stroke-width="9"/><polyline fill="none" stroke="#000" stroke-miterlimit="10" stroke-width="9" points="186.9 35.1 192.9 35.1 192.9 41.1"/><line x1="192.9" x2="192.9" y1="52.5" y2="206.2" fill="none" stroke="#000" stroke-dasharray="11.382 11.382" stroke-miterlimit="10" stroke-width="9"/><polyline fill="none" stroke="#000" stroke-miterlimit="10" stroke-width="9" points="192.9 211.9 192.9 217.9 198.9 217.9"/><line x1="205.8" x2="216" y1="217.9" y2="217.9" fill="none" stroke="#000" stroke-dasharray="6.829 6.829" stroke-miterlimit="10" stroke-width="9"/><polyline fill="none" stroke="#000" stroke-miterlimit="10" stroke-width="9" points="220.4 217.9 225.4 217.9 225.4 212.9"/><line x1="225.4" x2="225.4" y1="200" y2="15.9" fill="none" stroke="#000" stroke-dasharray="11.874 11.874" stroke-miterlimit="10" stroke-width="9"/></g></g><g><g><polyline fill="none" stroke="#000" stroke-miterlimit="10" stroke-width="9" points="63 39.4 63 35.1 57 35.1"/><line x1="50.2" x2="39.9" y1="35.1" y2="35.1" fill="none" stroke="#000" stroke-dasharray="6.829 6.829" stroke-miterlimit="10" stroke-width="9"/><polyline fill="none" stroke="#000" stroke-miterlimit="10" stroke-width="9" points="36.5 35.1 30.5 35.1 30.5 41.1"/><line x1="30.5" x2="30.5" y1="53" y2="237.1" fill="none" stroke="#000" stroke-dasharray="11.875 11.875" stroke-miterlimit="10" stroke-width="9"/><polyline fill="none" stroke="#000" stroke-miterlimit="10" stroke-width="9" points="30.5 243 30.5 249 36.5 249"/><line x1="48.1" x2="181.1" y1="249" y2="249" fill="none" stroke="#000" stroke-dasharray="11.572 11.572" stroke-miterlimit="10" stroke-width="9"/><polyline fill="none" stroke="#000" stroke-miterlimit="10" stroke-width="9" points="186.9 249 192.9 249 192.9 243"/><line x1="192.9" x2="192.9" y1="236.6" y2="227.1" fill="none" stroke="#000" stroke-dasharray="6.378 6.378" stroke-miterlimit="10" stroke-width="9"/><polyline fill="none" stroke="#000" stroke-miterlimit="10" stroke-width="9" points="192.9 223.9 192.9 217.9 189.5 217.9"/></g></g></g></g></svg>